<?xml version="1.0" encoding="UTF-8"?>
<svg width="14px" height="14px" viewBox="0 0 14 14" version="1.1" xmlns="http://www.w3.org/2000/svg" xmlns:xlink="http://www.w3.org/1999/xlink">
    <!-- Generator: sketchtool 63.1 (101010) - https://sketch.com -->
    <title>94414BB4-73EF-4876-A33D-0B740A491152</title>
    <desc>Created with sketchtool.</desc>
    <g id="Maquettes" stroke="none" stroke-width="1" fill="none" fill-rule="evenodd">
        <g id="Catalogue---Kits-#2" transform="translate(-1302.000000, -454.000000)" fill="#112648">
            <g id="section" transform="translate(426.000000, 444.000000)">
                <g id="title">
                    <g id="arrow-right" transform="translate(876.000000, 10.000000)">
                        <g id="Group" transform="translate(-0.000000, -0.000000)">
                            <path d="M7.61289949,0.3763713 L7.70710683,0.459559906 L13.5404402,6.29289327 C13.5688775,6.32133053 13.59561,6.35147255 13.6204713,6.38315288 L13.5404402,6.29289327 C13.5829725,6.33542562 13.6208727,6.38083607 13.6541405,6.42849771 C13.6631528,6.4415518 13.6720946,6.4550454 13.6807126,6.46876306 C13.6920678,6.48668806 13.702559,6.50463958 13.712444,6.52283309 C13.7231624,6.54265821 13.7335514,6.56341437 13.7432246,6.58456642 C13.7485111,6.5960933 13.7534069,6.60738368 13.7580847,6.61874275 C13.7670913,6.64052704 13.7755227,6.66322247 13.7831373,6.6862894 C13.7890482,6.70444068 13.7943319,6.72216464 13.7991143,6.73999507 C13.8037208,6.75678052 13.8079889,6.77454821 13.8117759,6.79249332 C13.8165131,6.81543904 13.8204254,6.83779076 13.8235751,6.86022895 C13.825964,6.87678356 13.82791,6.89380803 13.8294232,6.9109568 C13.831044,6.92963153 13.8321778,6.94829475 13.8327912,6.96697188 C13.8331517,6.97778926 13.8333334,6.98887343 13.8333334,7.00000005 L13.8327912,7.03302822 C13.832164,7.05212724 13.8309925,7.07121171 13.8292769,7.09025639 L13.8333334,7.00000005 C13.8333334,7.04747839 13.8300246,7.09418392 13.8236251,7.13989863 C13.8205213,7.16157617 13.8166826,7.18361142 13.812103,7.20552274 C13.8081264,7.22496635 13.8035506,7.24400069 13.7984394,7.26281456 C13.7938854,7.27932999 13.7888042,7.29630137 13.7832632,7.31315461 C13.7755227,7.33677763 13.7670913,7.35947306 13.7578773,7.38176275 C13.7535348,7.39230605 13.7487785,7.40328977 13.743816,7.41420262 C13.7329121,7.43804986 13.7212611,7.46115558 13.7087625,7.48372681 C13.7007983,7.49827623 13.692406,7.51259124 13.6836275,7.52673476 C13.6741179,7.54190041 13.6640694,7.55715024 13.6536226,7.57210117 C13.6441701,7.58577157 13.6340953,7.59943852 13.6236288,7.61289949 L13.6167242,7.62159254 C13.6157008,7.62288062 13.6146743,7.62416613 13.6136446,7.62544904 L13.5404402,7.70710683 L7.70710683,13.5404402 C7.31658254,13.9309645 6.68341756,13.9309645 6.29289327,13.5404402 C5.93240931,13.1799562 5.90467977,12.6127252 6.20970466,12.220434 L6.29289327,12.1262266 L10.4186667,7.99966669 L1.16666669,8.00000005 C0.614381938,8.00000005 0.166666687,7.5522848 0.166666687,7.00000005 C0.166666687,6.48716421 0.552706878,6.06449289 1.05004556,6.00672778 L1.16666669,6.00000005 L10.4186667,5.99966669 L6.29289327,1.87377347 C5.93240931,1.51328951 5.90467977,0.946058451 6.20970466,0.553767244 L6.29289327,0.459559906 C6.65337723,0.0990759447 7.22060829,0.0713464092 7.61289949,0.3763713 Z" id="Combined-Shape"></path>
                        </g>
                    </g>
                </g>
            </g>
        </g>
    </g>
</svg>