<?xml version="1.0" encoding="UTF-8"?>
<svg width="14px" height="9px" viewBox="0 0 14 9" version="1.1" xmlns="http://www.w3.org/2000/svg" xmlns:xlink="http://www.w3.org/1999/xlink">
    <!-- Generator: sketchtool 63.1 (101010) - https://sketch.com -->
    <title>B60F4CB9-1F27-4ED8-A40E-1E31688E274E</title>
    <desc>Created with sketchtool.</desc>
    <g id="Maquettes" stroke="none" stroke-width="1" fill="none" fill-rule="evenodd">
        <g id="Catalogue---Kits-#2" transform="translate(-1237.000000, -1971.000000)" fill="#112648">
            <g id="section-copy-3" transform="translate(426.000000, 1583.000000)">
                <g id="card/kit-autonome-copy-2" transform="translate(612.000000, 93.000000)">
                    <g id="card-copy-3">
                        <g id="title" transform="translate(24.000000, 206.000000)">
                            <g id="Group" transform="translate(0.000000, 77.000000)">
                                <g id="solar-panels-copy-3" transform="translate(167.000000, 0.000000)">
                                    <g id="Filled/Image/flash-on" transform="translate(7.000000, 12.449704)">
                                        <g id="Group" transform="translate(0.666667, -0.000000)">
                                            <path d="M4.10555557,1.66663604e-08 C4.47374541,1.66663604e-08 4.77222224,0.29847685 4.77222224,0.666666683 C4.77222224,1.00855724 4.51486211,1.29033812 4.18330299,1.3288482 L4.10555557,1.33333335 L2.33333334,1.33333335 C2.11018799,1.33333335 1.925452,1.4977834 1.89370781,1.71210106 L1.88888889,1.7777778 L1.88888889,6.22222227 C1.88888889,6.44536761 2.05333893,6.63010358 2.2676566,6.66184776 L2.33333334,6.66666668 L3.44444446,6.66666668 C3.81263429,6.66666668 4.11111113,6.96514352 4.11111113,7.33333335 C4.11111113,7.67522391 3.853751,7.95700479 3.52219188,7.99551486 L3.44444446,8.00000002 L2.33333334,8.00000002 C1.38925684,8.00000002 0.617056578,7.26411042 0.55905312,6.33465173 L0.555555558,6.22222227 L0.555555558,1.7777778 C0.555555558,0.833701302 1.29144519,0.0615010359 2.22090388,0.00349757838 L2.33333334,1.66663604e-08 L4.10555557,1.66663604e-08 Z M10.1111112,1.66663604e-08 C11.0551877,1.66663604e-08 11.8273879,0.735889648 11.8853914,1.66534833 L11.8888889,1.7777778 L11.8888889,6.22222227 C11.8888889,7.16629876 11.1529993,7.938499 10.2235406,7.99650246 L10.1111112,8.00000002 L8.33888893,8.00000002 C7.97069909,8.00000002 7.67222226,7.70152318 7.67222226,7.33333335 C7.67222226,6.99144279 7.92958239,6.70966191 8.26114151,6.67115184 L8.33888893,6.66666668 L10.1111112,6.66666668 C10.3342565,6.66666668 10.5189925,6.50221665 10.5507367,6.28789901 L10.5555556,6.22222227 L10.5555556,1.7777778 C10.5555556,1.55463244 10.3911056,1.36989645 10.1767879,1.33815227 L10.1111112,1.33333335 L9.00000004,1.33333335 C8.63181021,1.33333335 8.33333338,1.03485652 8.33333338,0.666666683 C8.33333338,0.324776124 8.5906935,0.0429952429 8.92225262,0.00448517088 L9.00000004,1.66663604e-08 L10.1111112,1.66663604e-08 Z M7.14757794,0.111966488 C7.43204808,0.301613249 7.52374623,0.672053728 7.37187264,0.969289138 L7.332478,1.03646682 L5.80066667,3.33333333 L7.88888891,3.33333335 C8.39599709,3.33333335 8.70821246,3.87159213 8.4816563,4.30556645 L8.4435891,4.36980015 L6.22136689,7.70313348 C6.01713192,8.00948594 5.60321902,8.09226852 5.29686656,7.88803355 C5.01239642,7.69838679 4.92069827,7.32794631 5.07257186,7.0307109 L5.1119665,6.96353322 L6.64266667,4.66666667 L4.55555558,4.66666668 C4.04844739,4.66666668 3.73623203,4.1284079 3.96278818,3.69443358 L4.00085538,3.63019988 L6.22307761,0.296866551 C6.42731259,-0.0094859074 6.84122548,-0.0922684855 7.14757794,0.111966488 Z M13.4444445,2.77777781 C13.7863351,2.77777781 14.0681159,3.03513794 14.106626,3.36669706 L14.1111112,3.44444447 L14.1111112,4.55555559 C14.1111112,4.92374542 13.8126343,5.22222226 13.4444445,5.22222226 C13.1025539,5.22222226 12.8207731,4.96486213 12.782263,4.63330301 L12.7777778,4.55555559 L12.7777778,3.44444447 C12.7777778,3.07625464 13.0762547,2.77777781 13.4444445,2.77777781 Z" id="Combined-Shape"></path>
                                        </g>
                                    </g>
                                </g>
                            </g>
                        </g>
                    </g>
                </g>
            </g>
        </g>
    </g>
</svg>