<?xml version="1.0" encoding="UTF-8"?>
<svg width="10px" height="6px" viewBox="0 0 10 6" version="1.1" xmlns="http://www.w3.org/2000/svg" xmlns:xlink="http://www.w3.org/1999/xlink">
    <!-- Generator: sketchtool 63.1 (101010) - https://sketch.com -->
    <title>DB0132B2-4CB7-4AFC-8BEE-C113E5B28280</title>
    <desc>Created with sketchtool.</desc>
    <g id="Maquettes" stroke="none" stroke-width="1" fill="none" fill-rule="evenodd">
        <g id="Catalogue---Kits-#2" transform="translate(-342.000000, -218.000000)" fill="#0E203A">
            <g id="aside" transform="translate(120.000000, 168.000000)">
                <g id="item-copy" transform="translate(24.000000, 29.000000)">
                    <g id="chevron-down" transform="translate(203.232558, 24.000000) scale(1, -1) translate(-203.232558, -24.000000) translate(198.232558, 21.000000)">
                        <g id="Group" transform="translate(0.500000, -0.000000)">
                            <path d="M0.219669933,0.594669942 C0.490032904,0.324306971 0.915456196,0.303509819 1.2096746,0.532278487 L1.2803301,0.594669942 L4.50000002,3.81375 L7.71966993,0.594669942 C7.9900329,0.324306971 8.4154562,0.303509819 8.7096746,0.532278487 L8.7803301,0.594669942 C9.05069308,0.865032913 9.07149023,1.29045621 8.84272156,1.58467461 L8.7803301,1.65533011 L5.0303301,5.40533011 C4.75996713,5.67569309 4.33454384,5.69649024 4.04032544,5.46772157 L3.96966993,5.40533011 L0.219669933,1.65533011 C-0.073223286,1.3624369 -0.073223286,0.887563161 0.219669933,0.594669942 Z" id="Path"></path>
                        </g>
                    </g>
                </g>
            </g>
        </g>
    </g>
</svg>