<?xml version="1.0" encoding="UTF-8"?>
<svg width="16px" height="14px" viewBox="0 0 16 14" version="1.1" xmlns="http://www.w3.org/2000/svg" xmlns:xlink="http://www.w3.org/1999/xlink">
    <!-- Generator: sketchtool 63.1 (101010) - https://sketch.com -->
    <title>8CBBBACE-34FB-468E-81C3-62CB0F932C8F</title>
    <desc>Created with sketchtool.</desc>
    <g id="Maquettes" stroke="none" stroke-width="1" fill="none" fill-rule="evenodd">
        <g id="Catalogue---Kits-#2" transform="translate(-458.000000, -807.000000)" fill="#112648">
            <g id="section" transform="translate(426.000000, 444.000000)">
                <g id="card-copy-3" transform="translate(0.000000, 93.000000)">
                    <g id="title" transform="translate(24.000000, 206.000000)">
                        <g id="solar-panels" transform="translate(0.000000, 55.000000)">
                            <path d="M21.460096,15.6189349 L23.944256,9.98579882 C24.0376508,9.77045897 24.0125945,9.52533585 23.8773175,9.33094675 C23.7439526,9.12884307 23.5116648,9.00431326 23.2599963,9 L14.3348705,9 C14.034613,9.00141895 13.7647064,9.17362346 13.6506109,9.43656805 L8.05574403,22.028284 C7.96234919,22.2436239 7.98740547,22.488747 8.12268247,22.6831361 C8.25952212,22.879863 8.49120159,22.9987814 8.74000367,23 L17.6651295,23 C17.965387,22.9985811 18.2352936,22.8263765 18.3493891,22.563432 L19.1098128,20.9704142 L21.460096,15.6189349 Z M17.9272337,19.9916568 L17.1834732,21.6745562 L14.3348705,21.6745562 L15.5769505,18.8579882 L18.4255532,18.8579882 L17.9272337,19.9916568 Z M11.1143876,18.8579882 L13.9629903,18.8579882 L12.7209103,21.6745562 L9.87230763,21.6745562 L11.1143876,18.8579882 Z M12.9737888,14.6331361 L15.8223915,14.6331361 L14.5803115,17.4497041 L11.7317088,17.4497041 L12.9737888,14.6331361 Z M19.0428744,17.4497041 L16.1942717,17.4497041 L17.4363517,14.6331361 L20.2849544,14.6331361 L19.0428744,17.4497041 Z M20.9022756,13.2248521 L18.0536729,13.2248521 L19.295753,10.408284 L22.1443556,10.408284 L20.9022756,13.2248521 Z M14.8331901,10.408284 L17.6817927,10.408284 L16.4397127,13.2248521 L13.59111,13.2248521 L14.8331901,10.408284 Z" id="Shape"></path>
                        </g>
                    </g>
                </g>
            </g>
        </g>
    </g>
</svg>